# xmcd CD database file
#
# Track frame offsets:
#	150
#	15808
#	29938
#	45461
#	57462
#
# Disc length: 1056 seconds
#
# Revision: 0
# Processed by: cddbd v1.5.2PL0 Copyright (c) Steve Scherf et al.
# Submitted via: CDex 1.51
#
DISCID=39041e05
DTITLE=Fatcat - New Funk EP
DYEAR=2013
DGENRE=Jazz
TTITLE0=Nobody Goes Home
TTITLE1=Pancakes For Breakfast
TTITLE2=Reckless
TTITLE3=Raise Hell
TTITLE4=Bad Timing
EXTD=YEAR: 2013
EXTT0=
EXTT1=
EXTT2=
EXTT3=
EXTT4=
PLAYORDER=
